<svg width="18" height="22" viewBox="0 0 18 22" fill="none" xmlns="http://www.w3.org/2000/svg">
<g clip-path="url(#clip0_1_483)">
<path d="M17.4035 15.5861C17.101 16.2848 16.743 16.928 16.3282 17.5194C15.7628 18.3255 15.2998 18.8835 14.943 19.1934C14.39 19.702 13.7974 19.9625 13.1629 19.9773C12.7073 19.9773 12.1579 19.8477 11.5185 19.5847C10.8769 19.323 10.2873 19.1934 9.74815 19.1934C9.18273 19.1934 8.57633 19.323 7.92771 19.5847C7.2781 19.8477 6.75478 19.9847 6.35467 19.9983C5.74617 20.0242 5.13965 19.7563 4.53424 19.1934C4.14783 18.8563 3.66451 18.2786 3.08552 17.4601C2.4643 16.586 1.95358 15.5725 1.55347 14.417C1.12496 13.1689 0.910156 11.9603 0.910156 10.7902C0.910156 9.44984 1.19978 8.29383 1.77988 7.32509C2.23579 6.54697 2.84232 5.93316 3.60143 5.48255C4.36054 5.03195 5.18076 4.80233 6.06407 4.78764C6.54738 4.78764 7.18119 4.93714 7.96882 5.23096C8.75423 5.52576 9.25853 5.67526 9.47964 5.67526C9.64494 5.67526 10.2052 5.50045 11.1549 5.15195C12.053 4.82875 12.811 4.69492 13.432 4.74764C15.1146 4.88344 16.3788 5.54675 17.2195 6.74177C15.7146 7.6536 14.9702 8.93072 14.985 10.5691C14.9986 11.8452 15.4615 12.9071 16.3714 13.7503C16.7837 14.1417 17.2442 14.4441 17.7565 14.6589C17.6454 14.9812 17.5281 15.2898 17.4035 15.5861ZM13.5443 0.400114C13.5443 1.40034 13.1789 2.33425 12.4505 3.19867C11.5715 4.22629 10.5084 4.8201 9.35544 4.7264C9.34075 4.60641 9.33223 4.48011 9.33223 4.3474C9.33223 3.38718 9.75024 2.35956 10.4926 1.51934C10.8632 1.09392 11.3345 0.74019 11.9061 0.458013C12.4765 0.180046 13.0159 0.0263242 13.5233 0C13.5381 0.133715 13.5443 0.267438 13.5443 0.400101V0.400114Z" fill="white"/>
</g>
<defs>
<clipPath id="clip0_1_483">
<rect width="16.8464" height="22" fill="white" transform="translate(0.910156)"/>
</clipPath>
</defs>
</svg>
