<svg width="18" height="18" viewBox="0 0 18 18" fill="none" xmlns="http://www.w3.org/2000/svg">
<g clip-path="url(#clip0_1_478)">
<path fill-rule="evenodd" clip-rule="evenodd" d="M9 0C13.9706 0 18 4.02943 18 9C18 13.4921 14.7088 17.2155 10.4062 17.8907V11.6016H12.5033L12.9023 9H10.4062V7.3125C10.4062 6.64459 10.7128 5.99305 11.6723 5.91422C11.7362 5.90896 11.8031 5.90625 11.873 5.90625H13.0078V3.69141C13.0078 3.69141 12.219 3.55682 11.3624 3.52318C11.24 3.51837 11.1162 3.51563 10.9932 3.51563C8.93742 3.51563 7.59375 4.76156 7.59375 7.01719V9H5.30859V11.6016H7.59375V17.8907C3.29115 17.2155 0 13.4921 0 9C0 4.02943 4.02943 0 9 0Z" fill="white"/>
</g>
<defs>
<clipPath id="clip0_1_478">
<rect width="18" height="18" fill="white"/>
</clipPath>
</defs>
</svg>
