<svg width="19" height="18" viewBox="0 0 19 18" fill="none" xmlns="http://www.w3.org/2000/svg">
<g clip-path="url(#clip0_1_472)">
<path d="M18.4912 9.20731C18.4912 8.59552 18.4416 7.98041 18.3358 7.37854H9.84668V10.8443H14.708C14.5063 11.962 13.8581 12.9508 12.909 13.5792V15.8279H15.8092C17.5123 14.2604 18.4912 11.9455 18.4912 9.20731Z" fill="white"/>
<path d="M9.84682 18.0006C12.2742 18.0006 14.3212 17.2036 15.8127 15.8279L12.9124 13.5792C12.1055 14.1281 11.0638 14.439 9.85013 14.439C7.50216 14.439 5.51135 12.8549 4.79703 10.7252H1.8042V13.0434C3.33203 16.0826 6.44392 18.0006 9.84682 18.0006Z" fill="white"/>
<path d="M4.79358 10.7252C4.41659 9.60745 4.41659 8.39709 4.79358 7.27933V4.96112H1.80406C0.527554 7.5042 0.527554 10.5003 1.80406 13.0434L4.79358 10.7252Z" fill="#FBFBC0"/>
<path d="M9.84682 3.56224C11.1299 3.5424 12.3701 4.02523 13.2993 4.9115L15.8689 2.34196C14.2418 0.814129 12.0824 -0.0258495 9.84682 0.000606499C6.44392 0.000606499 3.33203 1.91867 1.8042 4.96111L4.79373 7.27931C5.50473 5.1463 7.49885 3.56224 9.84682 3.56224Z" fill="white"/>
</g>
<defs>
<clipPath id="clip0_1_472">
<rect width="18" height="18" fill="white" transform="translate(0.666748)"/>
</clipPath>
</defs>
</svg>
