<svg width="15" height="16" viewBox="0 0 15 16" fill="none" xmlns="http://www.w3.org/2000/svg">
<path fill-rule="evenodd" clip-rule="evenodd" d="M4.40817 0.545316C3.60973 0.581868 3.06472 0.708263 2.58784 0.89371C2.09455 1.08532 1.67611 1.34158 1.25923 1.75858C0.842037 2.1755 0.585789 2.59392 0.393598 3.08703C0.207658 3.56403 0.0810947 4.10924 0.0451571 4.90732C0.009375 5.70737 0 5.96316 0 8C0 10.0368 0.00906236 10.2917 0.0453126 11.0917C0.0820318 11.8901 0.20844 12.4352 0.393754 12.912C0.585474 13.4053 0.841729 13.8238 1.25876 14.2406C1.67548 14.6578 2.09393 14.9147 2.5869 15.1063C3.0641 15.2917 3.60925 15.4181 4.40755 15.4547C5.20756 15.4911 5.46302 15.5 7.49976 15.5C9.53684 15.5 9.79168 15.4911 10.5917 15.4547C11.3901 15.4181 11.9357 15.2917 12.413 15.1063C12.9061 14.9147 13.3239 14.6578 13.7406 14.2406C14.1578 13.8238 14.4141 13.4053 14.6062 12.9122C14.7906 12.4352 14.9172 11.89 14.9547 11.0919C14.9906 10.2918 15 10.0368 15 8C15 5.96316 14.9906 5.70753 14.9547 4.90748C14.9172 4.10908 14.7906 3.56403 14.6062 3.08718C14.4141 2.59392 14.1578 2.1755 13.7406 1.75858C13.3234 1.34142 12.9062 1.08516 12.4125 0.89371C11.9343 0.708263 11.389 0.581868 10.5906 0.545316C9.79058 0.508921 9.5359 0.5 7.49836 0.5C5.46381 0.5 5.20818 0.508921 4.40817 0.545316ZM7.50008 2.16847C9.39995 2.16847 9.62519 2.17526 10.3754 2.20937C11.0692 2.2411 11.4457 2.357 11.6966 2.45442C12.0287 2.58342 12.2654 2.7376 12.5143 2.98668C12.7633 3.23576 12.9175 3.473 13.0468 3.80513C13.1442 4.05571 13.2602 4.43229 13.2918 5.12616C13.3259 5.87632 13.3333 6.10171 13.3333 8.00095C13.3333 9.90018 13.3259 10.1256 13.2918 10.8758C13.2601 11.5697 13.1442 11.9463 13.0468 12.1968C12.9178 12.5289 12.7633 12.7654 12.5143 13.0143C12.2653 13.2634 12.0288 13.4176 11.6966 13.5466C11.446 13.6444 11.0692 13.7601 10.3754 13.7918C9.62526 13.8259 9.39995 13.8333 7.50008 13.8333C5.60003 13.8333 5.37485 13.8259 4.62473 13.7918C3.93095 13.7598 3.55441 13.6439 3.30343 13.5464C2.97137 13.4174 2.73418 13.2633 2.48512 13.0142C2.23607 12.7651 2.0819 12.5285 1.95263 12.1962C1.85523 11.9456 1.73916 11.5691 1.70758 10.8752C1.67349 10.1249 1.66667 9.89963 1.66667 7.99921C1.66667 6.09879 1.67349 5.87458 1.70758 5.12434C1.73931 4.43047 1.85523 4.05389 1.95263 3.80308C2.08161 3.47095 2.23607 3.23371 2.48512 2.98463C2.73418 2.73555 2.97137 2.58137 3.30343 2.45205C3.55426 2.35424 3.93095 2.23858 4.62473 2.20668C5.28115 2.17708 5.53555 2.16816 6.86173 2.16666C7.05119 2.16816 7.26259 2.16847 7.50008 2.16847ZM10.8333 3.83331C10.8333 4.29342 11.2066 4.66669 11.6667 4.66669C12.1267 4.66669 12.5 4.29342 12.5 3.83331C12.5 3.37329 12.1267 3.00003 11.6667 3.00003C11.2066 3.00026 10.8333 3.37313 10.8333 3.83331ZM4.16667 8.00031C4.16667 9.84137 5.65928 11.3333 7.50024 11.3333C9.34129 11.3333 10.8333 9.84137 10.8333 8.00031C10.8333 6.15934 9.34113 4.66669 7.50016 4.66669C5.65929 4.66669 4.16667 6.15934 4.16667 8.00031ZM9.16666 8C9.16666 8.92045 8.42045 9.66666 7.5 9.66666C6.57948 9.66666 5.83333 8.92045 5.83333 8C5.83333 7.07947 6.57948 6.33334 7.5 6.33334C8.42045 6.33334 9.16666 7.07947 9.16666 8Z" fill="#9E938D"/>
</svg>
