<svg width="13" height="16" viewBox="0 0 13 16" fill="none" xmlns="http://www.w3.org/2000/svg">
<path d="M12.712 6.65165C11.5443 6.65323 10.4038 6.29793 9.43109 5.63247L9.22534 5.48529V10.7837C9.22534 13.4297 7.15637 15.582 4.61283 15.582C3.73931 15.5828 2.88532 15.324 2.15048 14.8382L1.96931 14.7124L1.81651 14.596C0.713453 13.7185 0 12.3362 0 10.7837C0 8.13766 2.06931 5.98459 4.61283 5.98459C4.75148 5.98538 4.89001 5.99252 5.02797 6.00676L5.23442 6.03207V8.69313C5.03756 8.62904 4.82955 8.59186 4.61283 8.59186C3.44995 8.59344 2.50759 9.57382 2.50624 10.7837C2.50701 11.5473 2.88926 12.2515 3.50852 12.6479L3.63549 12.7231C3.93673 12.8885 4.27223 12.9747 4.61283 12.9747C5.70367 12.9747 6.60185 12.1067 6.70652 10.9997L6.71526 10.866L6.71945 0.417969H9.22534C9.22549 0.565937 9.23431 0.713922 9.25181 0.860308L9.28452 1.07947C9.44851 1.99102 9.94073 2.8005 10.6567 3.3449L10.8134 3.45806C11.3215 3.80305 11.9067 4.00325 12.5102 4.03886L12.712 4.04519V6.65165Z" fill="#9E938D"/>
</svg>
