<svg width="15" height="12" viewBox="0 0 15 12" fill="none" xmlns="http://www.w3.org/2000/svg">
<path fill-rule="evenodd" clip-rule="evenodd" d="M14.573 0.266247C14.1372 0.541497 13.1365 0.940498 12.643 0.940498V0.941254C12.0795 0.361504 11.2862 0 10.4064 0C8.69747 0 7.31184 1.36425 7.31184 3.0465C7.31184 3.27975 7.33933 3.50775 7.39017 3.72675C5.07217 3.66675 2.5365 2.52225 1.01034 0.564754C0.072 2.16375 0.883997 3.94275 1.94883 4.59075C1.58433 4.61775 0.913334 4.54875 0.5975 4.24575C0.576333 5.307 1.09467 6.71325 2.98467 7.224C2.62067 7.41675 1.97634 7.36125 1.69617 7.32C1.7945 8.21625 3.06883 9.38775 4.46233 9.38775C3.96567 9.95325 2.097 10.9792 0 10.653C1.42416 11.5057 3.084 12 4.84083 12C9.83337 12 13.7105 8.016 13.5018 3.10125C13.501 3.096 13.501 3.09075 13.5005 3.08475C13.501 3.07201 13.5018 3.05925 13.5018 3.0465C13.5018 3.03075 13.5005 3.0165 13.5 3.0015C13.9545 2.6955 14.5644 2.154 15 1.4415C14.7474 1.57875 13.9893 1.85325 13.284 1.9215C13.7367 1.68075 14.4073 0.893247 14.573 0.266247Z" fill="#9E938D"/>
</svg>
